<svg width="572" height="690" viewBox="0 0 572 690" fill="none" xmlns="http://www.w3.org/2000/svg">
<g clip-path="url(#clip0_4_2)">
<path d="M4.08882 329.558C6.19032 333.067 9.03579 336.073 12.4248 338.364C15.8138 340.655 19.6639 342.175 23.7039 342.817C27.7439 343.459 31.8755 343.208 35.8078 342.08C39.74 340.953 43.3773 338.977 46.4633 336.292L132.72 385.763L129.505 334.191L48.0873 295.118C43.2326 290.233 36.7546 287.298 29.8807 286.87C23.0068 286.442 16.2146 288.55 10.7913 292.795C5.36789 297.04 1.69009 303.127 0.454783 309.903C-0.78052 316.678 0.512497 323.672 4.08882 329.558Z" fill="#FFB8B8"/>
<path d="M253.81 527.739C228.224 563.551 229.139 623.465 236.278 689.038H357.252L362.512 676.765L369.525 689.038H483.486C483.486 689.038 474.72 522.479 458.941 517.219C443.161 511.96 253.81 527.739 253.81 527.739Z" fill="#2F2E41"/>
<path d="M357.252 153.582C391.142 153.582 418.616 126.109 418.616 92.2184C418.616 58.3281 391.142 30.8546 357.252 30.8546C323.362 30.8546 295.888 58.3281 295.888 92.2184C295.888 126.109 323.362 153.582 357.252 153.582Z" fill="#FFB8B8"/>
<path d="M401.604 169.503L413.604 192.503L496.604 229.503L474.786 440.639L465.604 462.503L470.565 481.49L458.604 495.503C470.61 506.367 472.135 517.739 465.604 529.503L427.382 538.258C427.382 538.258 214.861 557.156 232.771 524.232C252.341 488.259 257.324 382.017 214.122 325.244C177.445 277.046 205.604 214.503 205.604 214.503L292.604 188.503L324.604 169.503L401.604 169.503Z" fill="#14B8A6"/>
<path d="M384.495 2.33013C384.783 1.72001 385.248 1.21001 385.828 0.865617C386.408 0.521229 387.078 0.358174 387.752 0.397401C359.658 -1.28307 330.067 1.9913 306.564 17.4727C300.87 21.2234 295.502 25.697 289.306 28.4178C289.013 28.5492 288.76 28.754 288.57 29.0123C288.38 29.2706 288.26 29.5737 288.222 29.892C288.184 30.2103 288.229 30.5331 288.352 30.829C288.475 31.1249 288.673 31.3839 288.926 31.5808L289.607 32.1145C289.875 32.325 290.081 32.6052 290.201 32.9245C290.322 33.2437 290.352 33.5899 290.29 33.9253C290.227 34.2608 290.073 34.5726 289.846 34.8269C289.618 35.0812 289.326 35.2683 288.999 35.3678C288.659 35.4715 288.356 35.6703 288.124 35.9408C287.893 36.2112 287.745 36.5421 287.695 36.8943C287.646 37.2466 287.699 37.6056 287.846 37.9291C287.994 38.2525 288.232 38.5269 288.53 38.72L293.746 42.0907C294.008 42.2575 294.225 42.4876 294.376 42.7598C294.526 43.0321 294.606 43.3378 294.608 43.6489C294.609 43.9601 294.533 44.2666 294.385 44.5405C294.238 44.8144 294.024 45.0468 293.763 45.2165C293.321 45.4893 292.857 45.7245 292.376 45.9197C292.077 46.0321 291.811 46.2198 291.605 46.4646C291.4 46.7094 291.26 47.0032 291.201 47.3174C291.142 47.6317 291.164 47.956 291.267 48.2589C291.369 48.5619 291.548 48.8334 291.786 49.0472C294.044 51.0577 295.777 53.5902 296.832 56.4238C298.57 60.9435 298.882 65.866 299.176 70.6995C300.973 63.7252 308.584 59.6198 315.774 59.2027C322.964 58.7855 329.976 61.1578 336.973 62.8631C352.213 66.5666 368.041 67.1755 383.521 64.6538C378.265 75.2025 382.699 87.7849 387.16 98.6936L401.604 92.503C421.439 81.3061 407.622 128.671 400.207 135.173C415.348 140.422 454.979 82.1593 442.23 60.0587C435.598 48.5623 440.306 33.7347 427.267 22.8312C420.877 16.1041 408.118 19.094 401.604 13.503C399.04 11.3024 402.948 5.41517 399.424 4.13214C398.254 3.70599 384.689 1.90063 384.495 2.33013Z" fill="#2F2E41"/>
<path d="M280.554 194.443C269.294 244.433 240.414 361.153 211.114 385.563C209.255 387.318 207.027 388.633 204.594 389.413C101.604 414.503 68.6036 350.503 68.6036 350.503C68.6036 350.503 96.2037 337.053 96.9037 310.763L152.564 328.033L201.084 218.843L208.224 212.183L208.264 212.143L280.554 194.443Z" fill="#3F3D56"/>
<path d="M500.145 656.076C503.094 653.241 505.386 649.794 506.858 645.977C508.331 642.161 508.949 638.068 508.669 633.987C508.389 629.906 507.218 625.936 505.237 622.357C503.257 618.777 500.515 615.676 497.207 613.27L526.079 518.117L476.54 532.814L456.718 620.919C453.045 626.746 451.638 633.717 452.762 640.512C453.886 647.307 457.463 653.453 462.816 657.787C468.169 662.12 474.926 664.34 481.806 664.024C488.686 663.709 495.211 660.881 500.145 656.076Z" fill="#FFB8B8"/>
<path d="M473.72 224.18L496.604 229.503C496.604 229.503 591.188 413.531 568.396 448.596C545.603 483.661 517.681 599.752 517.681 599.752C517.681 599.752 476.383 591.542 460.604 570.503L489.499 432.817L459.694 317.102L473.72 224.18Z" fill="#14B8A6"/>
<path d="M39.5795 497.456L40.4013 201.067C40.4247 195.068 42.8267 189.323 47.0803 185.093C51.3339 180.863 57.0918 178.493 63.0907 178.503L286.93 179.124C292.929 179.147 298.673 181.549 302.904 185.803C307.134 190.056 309.504 195.814 309.494 201.813L308.672 498.202C308.649 504.201 306.247 509.945 301.993 514.175C297.74 518.405 291.982 520.776 285.983 520.766L62.1435 520.145C56.1447 520.122 50.4 517.72 46.1699 513.466C41.9398 509.212 39.5697 503.455 39.5795 497.456Z" fill="#E6E6E6"/>
<path d="M56.9976 407.981L57.5259 217.436C57.5477 211.818 59.7972 206.438 63.7809 202.476C67.7645 198.514 73.157 196.295 78.7752 196.304L271.146 196.837C276.764 196.859 282.145 199.109 286.107 203.092C290.068 207.076 292.288 212.468 292.279 218.087L291.548 481.832C291.526 487.451 289.276 492.831 285.292 496.792C281.308 500.754 275.916 502.974 270.297 502.964L151.128 502.634C126.102 502.536 102.137 492.516 84.4908 474.771C66.8441 457.027 56.9566 433.007 56.9976 407.981Z" fill="white"/>
<path d="M249.104 280.003H99.1036C96.7167 280.003 94.4275 279.055 92.7397 277.367C91.0519 275.679 90.1036 273.39 90.1036 271.003C90.1036 268.616 91.0519 266.327 92.7397 264.639C94.4275 262.951 96.7167 262.003 99.1036 262.003H249.104C251.491 262.003 253.78 262.951 255.468 264.639C257.155 266.327 258.104 268.616 258.104 271.003C258.104 273.39 257.155 275.679 255.468 277.367C253.78 279.055 251.491 280.003 249.104 280.003Z" fill="#3F3D56"/>
<path d="M132.104 238.503H99.1036C96.7167 238.503 94.4275 237.555 92.7397 235.867C91.0519 234.179 90.1036 231.89 90.1036 229.503C90.1036 227.116 91.0519 224.827 92.7397 223.139C94.4275 221.451 96.7167 220.503 99.1036 220.503H132.104C134.491 220.503 136.78 221.451 138.468 223.139C140.155 224.827 141.104 227.116 141.104 229.503C141.104 231.89 140.155 234.179 138.468 235.867C136.78 237.555 134.491 238.503 132.104 238.503Z" fill="#3F3D56"/>
<path d="M249.104 321.503H99.1036C96.7167 321.503 94.4275 320.555 92.7397 318.867C91.0519 317.179 90.1036 314.89 90.1036 312.503C90.1036 310.116 91.0519 307.827 92.7397 306.139C94.4275 304.451 96.7167 303.503 99.1036 303.503H249.104C251.491 303.503 253.78 304.451 255.468 306.139C257.155 307.827 258.104 310.116 258.104 312.503C258.104 314.89 257.155 317.179 255.468 318.867C253.78 320.555 251.491 321.503 249.104 321.503Z" fill="#3F3D56"/>
<path d="M249.104 363.003H99.1036C96.7167 363.003 94.4275 362.055 92.7397 360.367C91.0519 358.679 90.1036 356.39 90.1036 354.003C90.1036 351.616 91.0519 349.327 92.7397 347.639C94.4275 345.951 96.7167 345.003 99.1036 345.003H249.104C251.491 345.003 253.78 345.951 255.468 347.639C257.155 349.327 258.104 351.616 258.104 354.003C258.104 356.39 257.155 358.679 255.468 360.367C253.78 362.055 251.491 363.003 249.104 363.003Z" fill="#3F3D56"/>
<path d="M155.304 394H93.6964C92.7161 394 91.7759 393.052 91.0827 391.364C90.3894 389.676 90 387.387 90 385C90 382.613 90.3894 380.324 91.0827 378.636C91.7759 376.948 92.7161 376 93.6964 376H155.304C156.284 376 157.224 376.948 157.917 378.636C158.611 380.324 159 382.613 159 385C159 387.387 158.611 389.676 157.917 391.364C157.224 393.052 156.284 394 155.304 394Z" fill="#3F3D56"/>
<path d="M220.607 426H97.3929C95.4321 426 93.5518 425.052 92.1653 423.364C90.7789 421.676 90 419.387 90 417C90 414.613 90.7789 412.324 92.1653 410.636C93.5518 408.948 95.4321 408 97.3929 408H220.607C222.568 408 224.448 408.948 225.835 410.636C227.221 412.324 228 414.613 228 417C228 419.387 227.221 421.676 225.835 423.364C224.448 425.052 222.568 426 220.607 426Z" fill="#3F3D56"/>
<path d="M251.5 486C262.27 486 271 477.493 271 467C271 456.507 262.27 448 251.5 448C240.73 448 232 456.507 232 467C232 477.493 240.73 486 251.5 486Z" fill="#3F3D56"/>
<path d="M160.604 109.503C169.992 109.503 177.604 101.892 177.604 92.5029C177.604 83.1141 169.992 75.5029 160.604 75.5029C151.215 75.5029 143.604 83.1141 143.604 92.5029C143.604 101.892 151.215 109.503 160.604 109.503Z" fill="#F2F2F2"/>
<path d="M98.6037 598.503C107.992 598.503 115.604 590.892 115.604 581.503C115.604 572.114 107.992 564.503 98.6037 564.503C89.2148 564.503 81.6037 572.114 81.6037 581.503C81.6037 590.892 89.2148 598.503 98.6037 598.503Z" fill="#F2F2F2"/>
<path d="M489.604 175.503C498.992 175.503 506.604 167.892 506.604 158.503C506.604 149.114 498.992 141.503 489.604 141.503C480.215 141.503 472.604 149.114 472.604 158.503C472.604 167.892 480.215 175.503 489.604 175.503Z" fill="#F2F2F2"/>
</g>
<defs>
<clipPath id="clip0_4_2">
<rect width="571.94" height="689.038" fill="white"/>
</clipPath>
</defs>
</svg>
